<svg width="800" height="1281" viewBox="0 0 800 1281" fill="none" xmlns="http://www.w3.org/2000/svg">
<path d="M8.57637 1093.61C12.7226 1093.21 19.2959 1092.31 23.1388 1091.61C31.0267 1090.11 31.3301 1090.31 31.4313 1097.51C31.4313 1099.11 32.3414 1103.71 33.3527 1107.61C35.173 1114.61 35.173 1114.91 33.2516 1122.11C30.7234 1131.91 30.5211 1145.41 32.847 1154.71C34.5662 1161.51 34.5662 1162.31 32.9482 1169.21C30.6222 1179.01 30.8245 1193.41 33.2516 1202.61C35.173 1209.61 35.173 1209.81 33.2516 1217.11C30.7234 1226.61 30.6222 1239.31 32.847 1249.21C34.4651 1256.21 34.4651 1257.41 33.0493 1264.21C32.2403 1268.21 31.3301 1273.41 31.0267 1275.81L30.42 1280.01H39.6226H48.8252L48.1173 1275.71C47.814 1273.41 46.8027 1268.21 45.8925 1264.21C44.2745 1257.41 44.2745 1256.61 46.0948 1249.21C48.623 1239.31 48.623 1225.81 46.297 1216.41C44.4767 1209.61 44.4767 1209.01 46.1959 1202.91C48.623 1194.11 48.5219 1177.71 45.8925 1169.01C43.9711 1162.61 43.9711 1162.31 45.8925 1155.51C48.5219 1145.91 48.623 1130.71 46.297 1121.41C44.5779 1114.81 44.5779 1113.91 45.9937 1108.21C46.9038 1104.91 47.9151 1098.81 48.2185 1094.71C48.9264 1087.51 49.0275 1087.21 51.7579 1086.61C53.2749 1086.31 59.6459 1086.51 65.9158 1087.11C80.276 1088.31 81.1861 1088.01 80.7816 1082.81L80.4782 1078.81L71.3767 1078.41C57.8256 1077.91 54.3873 1077.21 54.994 1075.01C55.2974 1074.01 54.7918 1072.21 53.9828 1071.11C52.7692 1069.31 52.7692 1068.71 54.0839 1066.81C56.1064 1064.01 56.1064 1063.51 54.185 1061.71C52.8704 1060.41 53.376 1060.11 58.0279 1059.51C60.8595 1059.11 66.826 1058.01 71.2756 1056.91C75.6241 1055.91 79.3658 1055.01 79.5681 1055.01C79.7704 1055.01 79.9726 1052.81 79.9726 1050.11V1045.31L74.6128 1046.71C63.7922 1049.51 54.2861 1051.01 53.2749 1050.01C52.6681 1049.41 51.4546 1049.01 50.4433 1049.01C48.9264 1049.01 48.623 1048.11 48.623 1043.91C48.623 1041.21 47.7128 1034.41 46.4993 1028.91C44.4767 1019.31 44.4767 1018.81 46.1959 1013.21C48.623 1005.31 48.5219 988.908 45.9937 979.508C44.0722 972.608 44.0722 972.308 45.8925 966.008C48.5219 957.208 48.623 940.808 46.297 931.808C44.5779 925.408 44.5779 924.708 46.1959 918.808C48.623 910.108 48.623 894.608 46.1959 885.208C44.2745 878.008 44.2745 877.608 46.1959 870.208C48.623 860.308 48.623 846.708 46.297 837.408C44.5779 830.808 44.5779 829.908 46.0948 824.108C46.9038 820.708 47.9151 814.408 48.3196 810.108C48.9264 802.408 48.9264 802.308 52.1625 801.108C54.7918 800.208 57.5222 800.408 66.4215 801.908C72.4891 802.908 78.1523 804.008 78.9613 804.208C80.1749 804.408 80.4782 803.508 80.4782 800.108C80.4782 795.608 80.4782 795.608 75.8264 794.508C73.2982 793.808 67.5339 792.708 62.882 792.008C55.7019 790.908 54.5895 790.508 54.994 788.908C55.2974 787.908 54.7918 786.208 53.9828 785.008C53.0726 783.708 52.7692 782.508 53.376 782.108C55.1963 780.908 55.4997 778.208 54.185 776.208C52.7692 774.408 52.9715 774.208 57.4211 773.608C59.9493 773.308 66.1181 773.008 70.9722 773.008H79.9726V769.108C79.9726 765.208 79.9726 765.108 75.4219 764.408C72.8937 764.108 67.5339 764.108 63.3876 764.508C59.3425 764.808 54.3873 764.808 52.4658 764.508L48.9264 763.808L48.3196 755.908C47.9151 751.608 46.9038 745.308 46.0948 741.908C44.5779 736.108 44.5779 735.208 46.297 728.608C48.7241 719.208 48.5219 703.908 45.8925 695.008C43.9711 688.608 43.9711 688.308 45.8925 681.508C48.4207 672.108 48.623 655.808 46.1959 647.108C44.4767 641.008 44.4767 640.408 46.297 633.608C48.7241 624.108 48.5219 608.908 45.8925 599.908C43.9711 593.508 43.9711 593.108 45.6903 586.908C48.8252 575.908 49.1286 566.808 46.7016 555.208C44.679 545.608 44.5779 544.608 46.0948 539.008C47.0049 535.708 47.9151 529.408 48.3196 525.008L48.9264 517.108L53.4771 516.408C55.9042 516.008 62.4775 516.208 67.9384 516.908C81.9952 518.408 81.1861 518.608 80.7816 514.208L80.4782 510.508L72.388 509.308C67.9384 508.708 62.073 507.908 59.4437 507.508C55.2974 507.008 54.6907 506.608 55.1963 505.008C55.6008 503.808 55.0952 502.408 53.9828 501.308C52.2636 499.608 52.2636 499.408 53.8816 497.708C56.1064 495.608 56.1064 494.608 54.2861 492.708C52.9715 491.508 53.4771 491.208 58.0279 490.608C60.9606 490.308 67.0282 490.008 71.579 490.008H79.9726V485.408V480.708L66.9271 481.408C49.3309 482.308 49.1286 482.208 48.3196 471.708C48.0162 467.208 47.0049 460.708 46.0948 457.308C44.5779 451.508 44.5779 450.608 46.297 444.308C48.623 435.208 48.623 420.708 46.0948 411.208C44.2745 404.008 44.2745 403.608 46.1959 396.208C48.623 386.308 48.623 372.708 46.297 363.408C44.4767 356.608 44.4767 356.008 46.1959 349.908C48.623 341.208 48.4207 323.908 45.7914 315.108C43.9711 308.808 43.9711 308.608 45.8925 302.108C48.5219 293.108 48.7241 277.908 46.297 268.408C44.5779 261.808 44.5779 260.908 46.0948 255.108C46.9038 251.708 47.9151 245.408 48.3196 241.108C48.9264 233.608 49.0275 233.208 51.5557 232.708C52.9715 232.408 59.9493 233.708 67.1294 235.608C74.2083 237.508 80.276 239.008 80.4782 239.008C80.7816 239.008 80.9839 237.008 80.9839 234.608C80.9839 231.208 80.5794 230.008 79.1636 229.608C78.2534 229.408 72.2869 227.908 66.017 226.308C55.2974 223.708 54.5895 223.408 55.1963 221.308C55.4997 220.008 55.0952 218.508 54.185 217.608C52.7692 216.208 52.7692 215.808 54.0839 213.708C55.4997 211.608 55.4997 211.208 54.0839 209.208L52.567 207.008H66.2192H79.9726V202.608V198.308L68.3429 198.808C58.6346 199.208 56.0053 199.008 52.7692 197.608L48.9264 195.808L48.3196 187.508C48.0162 183.008 47.0049 176.408 46.0948 173.008C44.5779 167.108 44.5779 166.208 46.297 159.608C48.7241 150.108 48.5219 134.908 45.8925 125.908C43.9711 119.408 43.9711 119.208 45.7914 112.908C48.4207 104.108 48.623 86.8083 46.1959 78.1083C44.4767 72.0083 44.4767 71.4083 46.297 64.6083C48.623 55.3083 48.623 41.7083 46.1959 31.8083C44.3756 24.6083 44.3756 23.8083 45.8925 17.3083C46.8027 13.6083 47.814 8.10828 48.2185 5.20828L48.9264 0.00828171H39.6226H30.3188L30.9256 5.20828C31.3301 8.10828 32.2403 13.7083 33.1504 17.6083C34.6673 24.2083 34.6673 25.2083 32.9482 32.1083C30.5211 41.7083 30.6222 54.3083 33.2516 64.1083C35.173 71.7083 35.173 71.8083 33.2516 79.1083C30.7234 88.9083 30.5211 102.308 32.847 111.708C34.5662 118.708 34.5662 119.308 32.847 126.708C30.5211 136.908 30.7234 150.308 33.3527 159.408C35.2741 166.308 35.2741 166.508 33.3527 174.008C32.3414 178.108 31.3301 184.408 31.0267 188.008L30.6222 194.408L25.1613 194.108C22.2286 194.008 16.5655 193.508 12.7226 193.008C1.09291 191.508 0.890655 191.508 1.29517 195.208C1.59855 198.808 2.10419 199.008 18.2846 201.308C25.667 202.408 26.8805 202.808 26.5771 204.408C26.3749 205.408 26.9816 207.008 27.8918 208.008C29.3076 209.508 29.3076 209.808 27.8918 211.008C25.9704 212.608 25.9704 214.408 27.8918 216.308C29.2064 217.608 29.2064 217.908 27.8918 219.008C26.0715 220.508 25.9704 223.108 27.5884 224.908C28.7008 226.008 26.476 226.108 14.9474 225.508L0.991783 224.808L1.29517 228.708L1.59855 232.508L15.9587 233.908L30.3188 235.308L30.9256 240.908C31.3301 244.008 32.4425 249.908 33.4538 254.108C35.2741 261.508 35.2741 261.808 33.3527 268.608C30.7234 277.708 30.5211 291.108 32.847 301.308C34.5662 308.708 34.5662 309.308 32.847 316.308C30.5211 325.708 30.7234 339.108 33.2516 348.908C35.173 356.208 35.173 356.308 33.2516 363.908C30.6222 373.608 30.5211 386.108 32.9482 396.108C34.6673 403.408 34.6673 404.008 32.9482 411.108C30.5211 420.808 30.6222 433.308 33.2516 443.308C35.2741 450.808 35.2741 451.208 33.4538 458.308C32.4425 462.208 31.3301 468.508 30.9256 472.208L30.2177 479.008H24.0489C20.6106 479.008 14.0373 479.308 9.38539 479.708L1.09291 480.308V484.108V488.008H14.1384C26.3749 488.008 27.1839 488.108 26.6782 489.908C26.476 490.908 26.8805 492.408 27.5884 493.108C28.9031 494.208 28.9031 494.808 27.4873 497.308C25.9704 500.008 25.9704 500.308 27.5884 501.308C29.1053 502.308 29.1053 502.608 27.5884 504.808C26.3749 506.708 26.2737 507.608 27.1839 509.108C27.8918 510.108 28.3974 511.208 28.3974 511.408C28.3974 511.608 25.5658 512.308 22.0264 512.908C18.588 513.508 12.5204 514.808 8.6775 515.808C1.59855 517.608 1.59855 517.608 1.29517 521.308C0.890655 525.708 0.890655 525.708 12.4192 523.108C17.0711 522.008 22.9365 520.908 25.5658 520.508L30.2177 519.808L30.8245 524.608C31.229 527.308 32.2403 533.208 33.3527 537.708C35.173 545.708 35.173 546.108 33.2516 553.208C30.7234 562.908 30.5211 576.408 32.847 585.708C34.5662 592.708 34.5662 593.308 32.847 600.708C30.5211 610.908 30.6222 623.408 33.2516 633.108C35.173 640.708 35.173 640.908 33.2516 648.108C30.8245 657.808 30.6222 670.408 32.847 680.208C34.5662 687.608 34.5662 688.408 32.9482 695.708C30.5211 706.208 30.6222 718.608 33.2516 728.008C35.3752 735.508 35.3752 735.608 33.3527 742.508C32.3414 746.308 31.4313 751.008 31.4313 753.008C31.4313 758.908 30.3188 759.608 24.6557 757.508C22.0264 756.508 15.8576 753.708 11.0034 751.408C6.1493 749.008 1.90193 747.008 1.59855 747.008C1.29517 747.008 1.09291 749.008 1.09291 751.508C1.09291 756.908 1.69968 757.308 16.4643 763.508C25.8692 767.508 26.8805 768.208 26.5771 770.308C26.3749 771.608 26.9816 773.308 27.8918 774.008C29.3076 775.208 29.3076 775.508 27.7907 777.108C26.0715 779.008 26.476 784.008 28.3974 784.008C28.9031 784.008 28.4985 785.308 27.5884 787.008C26.1726 789.408 26.0715 790.308 27.1839 792.008C28.3974 794.008 28.1952 794.008 14.7452 794.008H0.991783L1.29517 798.708L1.59855 803.508L15.9587 803.808L30.3188 804.108L30.9256 809.808C31.3301 812.908 32.4425 818.808 33.4538 822.908C35.173 830.008 35.173 830.508 33.2516 837.908C30.6222 847.608 30.5211 860.108 32.9482 870.108C34.6673 877.408 34.6673 878.008 32.9482 885.108C30.6222 894.508 30.7234 908.008 33.2516 917.708C35.0719 924.808 35.0719 925.208 33.2516 932.208C30.7234 942.008 30.6222 955.508 32.9482 964.908C34.6673 972.108 34.6673 972.608 32.9482 979.908C30.6222 989.608 30.7234 1003.11 33.2516 1012.71C35.0719 1019.71 35.0719 1020.31 33.3527 1027.01C32.4425 1030.81 31.3301 1037.01 30.9256 1040.81L30.2177 1047.71L15.9587 1048.61L1.59855 1049.51L1.29517 1053.91L0.991783 1058.31L14.1384 1057.71L27.3861 1057.11L26.7794 1059.41C26.476 1060.81 26.7794 1062.11 27.7907 1062.91C29.2064 1064.01 29.2064 1064.41 27.6895 1066.71C26.2737 1068.81 26.2737 1069.51 27.285 1071.21C28.2963 1072.91 28.2963 1073.71 27.285 1075.71C26.2737 1077.61 26.2737 1078.61 27.1839 1080.01C28.5997 1082.31 28.2963 1082.51 14.5429 1084.51C0.385016 1086.71 1.09291 1086.41 1.09291 1090.61V1094.31L8.57637 1093.61Z" fill="#5A189A"/>
<path d="M154.504 1232.61C159.965 1232.31 166.841 1231.71 169.673 1231.41L175.033 1230.81L175.134 1237.11C175.134 1240.61 175.943 1246.41 176.853 1250.01C178.471 1256.11 178.471 1256.91 176.853 1264.01C175.842 1268.11 175.033 1273.41 175.033 1275.71V1280.01H183.73H192.528L191.82 1274.81C191.415 1271.91 190.404 1266.71 189.494 1263.21C188.078 1257.51 188.078 1256.51 189.696 1250.21C190.606 1246.51 191.618 1240.21 191.921 1236.21C192.427 1230.41 192.831 1229.01 194.146 1229.01C195.157 1229.01 196.27 1228.61 196.876 1228.11C197.382 1227.51 202.337 1228.11 209.416 1229.61C215.787 1230.91 221.754 1232.11 222.563 1232.31C223.675 1232.41 224.08 1231.41 224.08 1228.01V1223.51L211.237 1221.11C199.101 1218.71 198.393 1218.51 198.899 1216.41C199.202 1215.11 198.798 1213.61 197.787 1212.61C196.168 1211.01 196.168 1210.81 197.685 1209.11C199.708 1206.91 199.708 1205.61 197.787 1203.71C196.168 1202.01 195.663 1202.11 216.495 1200.21L224.08 1199.51V1195.01V1190.51L220.54 1190.81C218.619 1190.91 212.855 1191.51 207.697 1192.11C200.416 1193.01 197.787 1193.01 195.461 1191.91C192.629 1190.71 192.427 1190.31 191.921 1183.11C191.618 1178.91 190.606 1172.51 189.696 1168.81C187.977 1162.41 188.078 1161.71 189.797 1154.81C192.224 1145.61 192.224 1129.11 189.899 1120.51C188.382 1114.91 188.382 1114.01 189.899 1108.51C192.326 1100.11 192.224 1083.61 189.797 1074.21C187.977 1067.21 187.977 1066.81 189.797 1059.71C192.224 1050.41 192.224 1034.91 189.899 1026.21C188.179 1020.31 188.179 1019.71 189.899 1013.71C192.224 1005.21 192.224 988.808 189.797 979.408C188.078 972.708 188.078 971.908 189.595 966.008C190.505 962.508 191.517 956.408 191.921 952.408C192.528 945.308 192.528 945.208 195.663 944.608C197.382 944.308 203.146 944.908 208.405 946.008C213.664 947.108 219.529 948.008 221.248 948.008C224.383 948.008 224.585 947.808 224.585 944.608C224.585 940.908 224.282 940.808 217.506 939.508C215.585 939.108 210.428 937.908 206.18 936.808C198.899 934.908 198.393 934.608 198.899 932.508C199.202 931.108 198.798 929.708 197.787 928.608C196.27 927.108 196.27 926.908 197.685 925.408C199.809 923.408 199.708 921.608 197.584 919.408C195.865 917.808 196.573 917.708 210.225 918.408L224.687 919.108L224.383 914.308L224.08 909.508L210.933 909.208C203.753 909.108 197.382 908.508 196.876 908.008C196.27 907.408 195.157 907.008 194.146 907.008C192.831 907.008 192.427 905.608 191.921 899.208C191.618 895.008 190.606 888.508 189.696 884.708C187.977 878.208 187.977 877.608 189.797 870.708C192.224 861.308 192.224 844.908 189.899 836.408C188.281 830.708 188.281 829.908 189.899 824.408C192.224 815.908 192.224 799.408 189.797 790.208C187.977 783.208 187.977 782.808 189.797 775.708C192.224 766.508 192.326 750.008 189.899 741.508C188.382 735.908 188.382 735.108 189.899 729.508C192.326 721.008 192.224 704.608 189.797 695.208C188.078 688.308 188.078 687.608 189.696 681.208C190.606 677.508 191.618 671.508 191.921 667.808C192.427 661.608 192.73 661.108 195.157 660.708C196.674 660.408 202.843 661.608 209.517 663.608C224.585 668.008 224.788 668.008 224.383 663.308L224.08 659.708L211.439 655.508L198.798 651.308V648.108C198.798 646.408 198.191 644.508 197.382 644.108C196.168 643.308 196.168 642.908 197.584 641.508C199.607 639.608 199.708 638.608 198.191 635.808C197.079 633.708 197.18 633.708 205.978 634.408C210.832 634.808 216.799 635.508 219.226 635.908C221.552 636.408 223.776 636.508 224.08 636.208C224.383 635.908 224.585 633.808 224.585 631.408C224.585 628.308 224.08 627.008 222.765 626.508C221.855 626.108 215.484 625.608 208.607 625.308C201.832 625.008 196.27 624.408 196.27 623.908C196.27 623.508 195.461 622.908 194.348 622.508C192.831 622.108 192.427 620.608 191.921 614.208C191.618 610.008 190.606 603.508 189.696 599.808C187.977 593.408 188.078 592.708 189.797 585.808C192.224 576.608 192.224 560.108 189.899 551.608C188.281 546.108 188.281 545.308 189.899 539.608C192.224 531.208 192.224 514.708 189.797 505.308C187.977 498.308 187.977 497.908 189.797 490.808C192.224 481.408 192.224 465.908 189.899 457.208C188.179 451.408 188.179 450.608 189.797 444.708C192.224 436.208 192.224 421.608 189.797 411.508C188.078 403.908 188.078 403.108 189.595 397.008C190.505 393.408 191.618 387.008 191.921 382.708C192.528 375.408 192.629 374.908 195.562 373.508C198.09 372.308 215.383 370.008 222.866 370.008C224.383 370.008 224.687 369.308 224.383 366.208L224.08 362.508L211.135 362.808L198.191 363.108L198.798 360.708C199.202 359.208 198.899 357.908 197.888 357.108C196.472 356.008 196.472 355.608 197.989 353.308C199.303 351.408 199.405 350.408 198.494 349.008C197.079 346.708 198.899 346.008 212.45 343.508C217.709 342.608 222.664 341.608 223.271 341.408C224.788 341.008 225.091 334.408 223.675 333.608C222.765 333.008 206.787 335.408 201.528 336.908C199.607 337.508 196.876 337.708 195.258 337.408C192.629 336.808 192.427 336.508 191.921 329.708C191.618 325.708 190.606 319.508 189.696 315.808C187.977 309.408 188.078 308.708 189.797 301.808C192.224 292.508 192.326 276.008 189.899 267.508C188.382 261.908 188.382 261.008 189.899 255.508C192.224 247.008 192.224 230.408 189.797 221.208C187.977 214.208 187.977 213.808 189.797 206.708C192.224 197.608 192.224 181.108 189.899 172.508C188.382 166.908 188.382 166.008 189.899 160.508C192.326 152.008 192.224 135.608 189.797 126.208C188.078 119.308 187.977 118.608 189.696 112.208C190.606 108.508 191.618 102.208 191.921 98.2083C192.427 92.4083 192.831 91.0083 194.146 91.0083C195.157 91.0083 196.27 90.6083 196.775 90.1083C197.382 89.6083 202.54 90.0083 209.416 91.1083C225.496 93.7083 224.585 93.8083 224.585 88.6083V84.2083L217.102 83.1083C212.956 82.5083 207.09 81.7083 203.955 81.4083C198.596 80.8083 198.393 80.6083 198.899 78.3083C199.303 76.8083 198.899 75.3083 197.888 74.1083C196.371 72.5083 196.371 72.2083 197.787 71.0083C199.607 69.5083 199.809 66.9083 198.09 65.2083C197.483 64.6083 197.079 63.9083 197.382 63.7083C197.584 63.5083 203.652 62.7083 210.933 61.9083L224.08 60.5083L224.383 56.6083C224.585 54.5083 224.383 52.4083 223.878 52.0083C223.473 51.6083 218.012 51.9083 211.944 52.7083C205.776 53.5083 199 53.9083 196.674 53.5083L192.528 52.9083L191.921 45.5083C191.618 41.5083 190.606 35.0083 189.696 31.1083C188.078 24.6083 188.078 23.6083 189.494 17.7083C190.404 14.2083 191.415 8.80828 191.82 5.60828L192.528 0.00828171H183.73H175.033L175.134 5.70828C175.235 8.90828 175.943 14.4083 176.853 18.0083C178.471 24.1083 178.471 24.9083 176.853 31.5083C175.842 35.3083 175.033 40.9083 175.033 43.7083C175.033 50.4083 175.033 50.4083 158.448 44.5083L145.706 40.1083V44.9083V49.8083L154.099 52.8083C158.65 54.5083 164.414 56.3083 166.74 56.9083C170.482 57.9083 170.887 58.4083 170.381 60.4083C170.078 61.8083 170.482 63.1083 171.392 63.9083C172.808 65.1083 172.808 65.4083 171.392 67.5083C169.774 69.9083 170.28 74.0083 172.1 74.0083C172.606 74.0083 172.403 75.4083 171.493 77.0083C170.381 79.2083 170.179 80.5083 170.887 81.9083C171.797 83.6083 171.493 83.9083 167.448 84.5083C164.92 84.8083 158.953 85.0083 153.998 84.9083L145.2 84.7083L144.897 89.5083L144.593 94.3083L159.762 93.7083L175.033 93.2083L175.134 99.3083C175.134 102.708 175.943 108.608 176.853 112.508C178.471 119.108 178.471 119.808 176.752 126.508C174.527 134.808 174.831 152.108 177.359 161.108C178.876 166.308 178.876 167.208 177.055 174.108C174.527 183.408 174.527 197.908 176.853 207.008C178.471 213.108 178.471 213.908 176.853 221.008C174.426 231.008 174.527 244.508 177.055 253.908C178.876 260.808 178.876 261.708 177.359 266.908C174.831 275.908 174.527 293.208 176.752 301.508C178.471 308.208 178.471 308.908 176.853 315.508C175.943 319.408 175.134 325.108 175.134 328.208C175.033 331.408 174.932 334.008 174.729 334.008C174.628 334.008 168.156 333.308 160.47 332.508C152.785 331.708 146.11 331.208 145.807 331.508C145.402 331.708 145.301 333.708 145.503 335.908L145.908 339.908L152.582 340.508C170.078 342.108 170.482 342.208 170.482 345.308C170.583 346.908 171.19 348.508 171.999 349.008C173.111 349.708 173.01 350.108 171.696 351.508C169.572 353.508 169.471 355.408 171.493 357.008C172.707 358.008 172.707 358.508 171.392 360.508C170.179 362.308 170.078 363.308 170.887 364.908C171.493 366.008 171.999 367.108 171.999 367.308C171.999 367.508 167.347 368.008 161.583 368.408C144.796 369.508 144.694 369.508 144.694 374.208V378.208L156.526 377.408C163.1 377.008 169.774 376.608 171.493 376.608L174.527 376.508L175.235 385.008C175.538 389.708 176.449 395.708 177.258 398.508C178.471 402.908 178.37 404.408 176.853 410.508C174.426 420.008 174.527 433.408 177.055 443.208C178.977 450.908 178.977 451.108 177.055 458.708C174.628 468.308 174.527 482.808 176.853 492.008C178.471 498.108 178.471 498.908 176.853 505.508C174.426 514.908 174.527 528.508 177.055 538.208C178.977 545.908 178.977 545.908 176.853 554.208C175.134 560.908 174.932 564.308 175.336 572.908C175.64 578.808 176.449 585.708 177.258 588.508C178.37 592.908 178.37 594.308 176.853 600.008C175.943 603.608 175.134 609.508 175.134 613.208L175.033 619.908L171.19 619.308C169.167 619.108 162.796 617.708 157.032 616.408C151.268 615.108 146.211 614.008 145.908 614.008C145.503 614.008 145.402 616.208 145.503 619.008C145.908 624.608 145.301 624.208 157.841 626.508C171.999 629.108 171.089 628.808 170.381 631.308C170.078 632.808 170.381 634.108 171.392 634.908C172.808 636.108 172.808 636.408 171.392 638.508C169.774 640.908 170.28 645.008 172.1 645.008C172.606 645.008 172.403 646.408 171.493 648.008C170.28 650.308 170.179 651.508 170.988 653.008C171.797 654.508 171.797 655.108 170.785 655.508C169.37 656.008 146.11 661.008 145.2 661.008C144.897 661.008 144.694 663.208 144.694 666.008C144.694 668.708 144.897 671.008 145.301 671.008C145.605 671.008 152.178 669.408 159.864 667.508C167.549 665.608 174.123 664.008 174.426 664.008C174.831 664.008 175.033 666.408 175.033 669.208C175.033 672.108 175.842 677.608 176.853 681.408C178.572 687.908 178.572 688.608 176.853 694.908C174.527 704.008 174.527 718.508 177.055 727.908C178.977 735.308 178.977 735.408 177.055 743.408C174.628 753.408 174.527 767.008 176.853 776.008C178.471 782.108 178.471 782.908 176.853 790.008C174.426 800.008 174.527 812.708 177.055 822.408C178.977 830.008 178.977 830.108 177.055 837.808C174.527 847.608 174.426 861.108 176.853 870.608C178.572 877.408 178.572 878.008 176.853 884.608C175.842 888.408 175.033 894.308 175.033 897.708V903.908L160.066 903.308L145.2 902.708L145.301 906.608L145.402 910.508L154.807 911.208C168.561 912.108 171.19 912.808 170.482 914.908C170.179 915.808 170.583 917.508 171.392 918.508C172.606 920.108 172.606 920.708 171.291 922.708C169.875 924.708 169.875 925.308 171.291 927.308C172.606 929.308 172.606 929.808 171.19 931.808C169.875 933.708 169.875 934.308 171.392 936.508C173.01 939.008 173.01 939.008 169.774 939.108C167.954 939.208 161.684 939.508 155.818 939.908L145.2 940.508L144.897 944.908L144.593 949.308L159.762 948.708L175.033 948.208L175.134 953.808C175.235 956.908 175.943 962.408 176.853 966.008C178.471 972.108 178.471 972.908 176.853 979.508C174.426 989.008 174.527 1002.51 177.055 1012.21C178.977 1019.91 178.977 1020.01 177.055 1027.61C174.527 1037.11 174.527 1051.71 176.853 1061.01C178.471 1067.11 178.471 1067.91 176.853 1074.51C174.426 1084.01 174.527 1097.51 177.055 1107.21C178.977 1114.91 178.977 1115.01 177.055 1122.61C174.527 1132.41 174.426 1146.01 176.853 1155.41C178.572 1161.91 178.572 1162.61 176.853 1168.91C175.943 1172.51 175.134 1178.81 175.134 1182.71L175.033 1190.01H160.369H145.706V1194.01V1198.01H154.504C166.943 1198.01 171.19 1198.81 170.482 1201.01C170.179 1201.91 170.583 1203.31 171.493 1204.01C172.808 1205.11 172.808 1205.51 171.493 1207.31C169.572 1210.01 169.572 1210.51 171.493 1212.41C172.909 1213.81 172.909 1214.21 171.392 1216.51C169.875 1218.91 169.875 1219.21 171.392 1220.91C172.909 1222.61 172.505 1222.71 161.178 1223.91C144.088 1225.61 144.694 1225.41 144.694 1229.71V1233.31L154.504 1232.61Z" fill="#5A189A"/>
<path d="M291.532 1095.51C300.735 1093.41 316.713 1090.01 317.522 1090.01C318.129 1090.01 318.634 1092.01 318.634 1094.31C318.634 1096.71 319.544 1102.21 320.657 1106.61L322.679 1114.51L320.556 1123.81C318.129 1134.21 318.23 1147.11 320.96 1156.81C322.275 1161.61 322.174 1162.71 320.353 1170.31C318.129 1179.91 318.331 1193.61 321.061 1203.41C322.679 1209.01 322.679 1209.81 320.96 1215.91C318.634 1224.31 318.634 1244.01 320.859 1251.71C322.174 1256.31 322.174 1257.71 320.96 1262.21C320.252 1265.11 319.342 1270.31 318.938 1273.71L318.331 1280.01H327.23H336.129L335.421 1274.21C335.017 1271.11 334.006 1265.81 333.197 1262.61C331.781 1257.11 331.781 1256.21 333.399 1250.61C335.927 1242.31 336.028 1222.71 333.5 1215.11C331.882 1210.01 331.882 1209.41 333.5 1204.11C336.028 1196.21 335.927 1177.71 333.5 1169.01C331.68 1162.81 331.68 1162.11 333.298 1156.51C335.927 1146.71 336.332 1131.91 334.006 1122.71C332.185 1115.51 332.185 1114.31 333.399 1109.71C334.208 1106.81 335.118 1100.61 335.522 1095.81L336.129 1087.11L340.275 1086.51C342.601 1086.21 347.557 1086.41 351.501 1086.91C355.344 1087.51 360.703 1088.01 363.333 1088.01H368.187V1084.11C368.187 1079.61 368.794 1079.91 353.22 1078.61C343.512 1077.71 341.691 1077.11 342.5 1074.81C342.804 1073.71 342.399 1072.11 341.489 1071.11C339.972 1069.51 339.972 1069.21 341.388 1068.01C343.208 1066.51 343.41 1063.91 341.792 1062.31C340.478 1061.01 342.399 1060.61 353.422 1059.51C356.759 1059.21 361.411 1058.51 363.838 1057.91C368.187 1056.81 368.187 1056.71 368.187 1052.41C368.187 1050.01 367.883 1048.01 367.378 1048.01C366.973 1048.01 364.647 1048.51 362.119 1049.11C359.591 1049.71 354.029 1050.51 349.579 1051.01C343.006 1051.61 341.186 1051.51 338.759 1050.11C336.028 1048.61 335.826 1048.11 335.826 1042.01C335.826 1038.41 334.916 1032.01 333.904 1027.81C332.084 1020.21 332.084 1019.81 333.904 1012.31C336.332 1002.21 336.332 991.608 333.803 981.108L331.68 972.608L333.904 963.208C336.332 952.808 336.129 940.108 333.399 930.308C332.084 925.608 332.185 924.408 333.601 919.308C335.927 911.208 335.826 892.608 333.5 884.208C331.68 878.008 331.68 877.608 333.904 868.308C336.332 857.808 336.23 845.208 333.5 835.308C332.185 830.708 332.185 829.408 333.904 822.308C334.916 818.008 335.826 811.808 335.826 808.508C335.826 802.508 335.927 802.408 339.163 801.208C341.085 800.508 343.916 800.208 345.534 800.408C347.152 800.708 352.916 801.208 358.276 801.508L368.187 802.008V797.708V793.308L362.018 792.608C358.58 792.308 353.624 792.008 351.096 792.008C344.118 792.008 341.995 791.208 342.601 788.908C342.905 787.808 342.399 786.108 341.489 785.108C339.972 783.508 339.972 783.208 341.388 782.008C343.208 780.508 343.41 777.908 341.691 776.208C340.275 774.808 340.579 774.708 352.006 772.508C368.49 769.408 368.187 769.508 368.187 764.608V760.308L363.838 761.108C361.512 761.508 355.344 762.808 350.186 763.808C345.029 764.908 340.579 765.408 340.275 764.908C339.972 764.408 338.961 764.008 337.95 764.008C336.332 764.008 336.028 762.808 335.522 754.708C335.219 749.708 334.208 743.308 333.298 740.508C331.882 736.008 331.882 735.108 333.5 730.008C335.927 722.208 335.927 703.708 333.5 695.008C331.68 688.808 331.68 688.108 333.298 682.508C335.927 672.708 336.332 657.908 334.006 648.708C332.185 641.508 332.185 640.308 333.5 635.708C336.23 625.908 336.332 613.208 333.904 602.808L331.68 593.408L333.803 584.908C336.332 574.408 336.332 563.808 333.904 553.708C332.185 546.608 332.185 545.308 333.399 540.708C334.208 537.808 335.118 531.608 335.522 526.908C336.129 518.308 336.129 518.308 339.365 517.208C341.085 516.508 345.13 516.008 348.366 516.008C351.501 516.008 357.265 515.508 361.209 514.908L368.187 513.708V509.808V505.908L361.31 506.708C357.568 507.108 351.804 507.508 348.467 507.508C342.5 507.508 342.399 507.508 342.703 504.808C342.905 503.108 342.399 501.808 341.287 501.208C339.568 500.308 339.568 500.108 341.186 498.508C343.107 496.608 343.309 495.608 341.995 493.108C341.085 491.608 341.792 491.208 347.759 490.208C351.501 489.608 357.568 488.208 361.31 487.008L368.187 484.908V481.008C368.187 478.808 367.985 477.008 367.681 477.008C367.378 477.008 363.939 477.908 359.894 478.908C349.175 481.808 343.512 482.408 339.568 481.108L336.129 479.908L335.522 470.708C335.118 465.608 334.208 459.108 333.399 456.308C332.084 451.608 332.185 450.408 333.601 445.308C335.927 437.208 335.826 418.608 333.5 410.208C331.68 404.008 331.68 403.608 333.904 394.308C336.332 383.808 336.23 371.208 333.5 361.308C332.185 356.708 332.185 355.508 334.006 348.308C336.332 339.108 335.927 324.308 333.298 314.508C331.68 308.908 331.68 308.208 333.5 302.008C335.927 293.408 335.927 274.808 333.5 267.208C331.882 262.108 331.983 261.508 333.803 253.708C334.916 249.208 335.826 242.708 335.826 239.308V233.108L340.073 232.508C342.5 232.108 348.77 232.608 354.231 233.408C368.591 235.708 368.187 235.808 368.187 230.708V226.408L355.04 224.608C341.995 222.808 341.894 222.708 342.5 220.308C342.905 218.808 342.5 217.308 341.489 216.108C339.972 214.508 339.972 214.208 341.388 213.008C343.208 211.508 343.41 208.908 341.792 207.308C340.478 206.008 342.298 205.608 357.265 203.908L368.187 202.708V197.808C368.187 192.908 368.187 192.908 365.355 193.408C353.624 195.808 342.197 196.908 339.062 195.808C335.927 194.608 335.826 194.508 335.826 188.508C335.826 185.208 334.916 178.808 333.803 174.308C331.983 166.508 331.882 165.908 333.5 160.808C335.927 153.208 335.927 134.608 333.5 126.008C331.68 119.808 331.68 119.108 333.298 113.508C335.927 103.708 336.332 88.9083 334.006 79.7083C332.185 72.5083 332.185 71.3083 333.5 66.7083C336.23 56.8083 336.332 44.2083 333.904 33.7083C331.781 24.7083 331.781 23.9083 333.298 18.2083C334.107 14.9083 335.118 9.40828 335.421 6.10828L336.129 0.00828171H327.23H318.331L318.938 6.70828C319.241 10.5083 320.151 15.9083 320.96 18.8083C322.275 23.5083 322.174 24.8083 320.454 31.8083C318.129 41.0083 318.432 57.2083 321.162 65.8083C322.679 70.9083 322.679 71.5083 320.556 80.6083C318.129 91.2083 318.23 104.008 320.96 113.808C322.275 118.508 322.174 119.808 320.556 126.808C318.027 136.908 318.129 148.108 320.657 158.408C322.679 166.208 322.679 167.008 321.162 172.608C320.252 175.808 319.241 181.808 318.938 185.908L318.331 193.208L314.69 192.708C312.668 192.408 306.195 191.808 300.128 191.408L289.307 190.708V195.408V200.008H294.161C296.892 200.008 302.555 200.308 306.802 200.608C314.387 201.308 314.589 201.408 314.589 203.908C314.589 205.408 315.095 207.108 315.803 207.808C316.713 208.708 316.713 209.308 315.803 210.208C314.083 211.908 314.286 215.908 316.106 216.608C317.421 217.108 317.421 217.408 316.106 218.708C314.387 220.408 314.083 224.108 315.6 225.608C316.207 226.208 313.679 227.008 308.218 227.808C303.667 228.508 297.498 229.808 294.566 230.608L289.307 232.108V236.708C289.307 240.908 289.509 241.208 291.532 240.608C293.959 239.908 309.836 236.608 315.196 235.708L318.331 235.108L318.938 242.308C319.241 246.308 320.252 252.208 321.162 255.408C322.679 261.008 322.679 261.808 320.657 269.608C318.129 279.908 318.027 291.108 320.556 301.208C322.174 308.208 322.275 309.508 320.96 314.208C318.23 324.008 318.129 336.808 320.556 347.408C322.679 356.508 322.679 357.108 321.162 362.208C318.432 370.808 318.129 387.008 320.454 396.208C322.174 403.308 322.275 404.408 320.96 409.208C318.331 418.708 318.129 432.408 320.556 442.308C322.578 450.808 322.578 451.508 321.061 457.308C320.151 460.708 319.14 467.108 318.735 471.508L318.129 479.508L303.971 480.708C296.184 481.308 289.712 481.908 289.509 481.908C289.408 482.008 289.307 484.108 289.307 486.608V491.308L295.071 490.608C298.307 490.308 303.971 489.708 307.712 489.408L314.589 488.708V491.808C314.589 493.508 315.196 495.008 315.803 495.308C316.814 495.708 316.814 496.008 315.803 497.108C314.387 498.608 314.185 502.608 315.499 503.408C316.005 503.808 316.005 505.308 315.297 507.008C314.387 509.208 314.387 510.508 315.297 511.808C316.308 513.408 315.095 514.008 303.263 518.008C296.083 520.308 289.914 522.908 289.61 523.608C289.408 524.208 289.307 526.108 289.509 527.808L289.813 530.708L302.959 526.408C310.139 524.108 316.713 522.108 317.319 522.108C318.129 522.008 318.634 523.408 318.634 525.708C318.634 527.808 319.544 533.208 320.657 537.708C322.679 546.008 322.679 546.008 320.657 554.208C318.129 564.608 318.129 576.208 320.556 585.808C322.275 592.908 322.275 593.308 320.556 600.808C318.027 610.908 318.129 622.108 320.657 632.408L322.78 640.608L320.657 649.108C318.129 659.608 318.129 670.208 320.556 680.208C322.376 687.808 322.376 688.108 320.454 696.208C318.129 705.808 318.432 719.508 321.162 729.608C322.578 735.108 322.578 736.108 321.162 741.608C320.252 744.808 319.241 750.608 318.938 754.408L318.331 761.208L313.173 760.608C308.42 760.108 294.869 756.908 290.925 755.408C289.61 754.908 289.307 755.608 289.307 759.708C289.307 764.608 289.408 764.708 293.049 765.808C295.172 766.408 300.836 767.708 305.69 768.708C314.083 770.408 314.589 770.608 314.589 773.008C314.589 774.408 315.095 776.108 315.803 776.808C316.713 777.708 316.713 778.308 315.803 779.208C314.286 780.708 314.185 784.208 315.701 785.708C316.51 786.508 316.51 787.008 315.701 787.408C314.286 788.308 314.286 793.308 315.6 794.608C317.016 796.008 299.42 797.308 293.352 796.408L289.307 795.708V800.508V805.208L303.869 804.808L318.432 804.508L318.938 811.508C319.241 815.308 320.252 821.208 321.162 824.608C322.578 830.108 322.578 831.108 321.061 836.608C318.331 846.408 318.129 860.108 320.353 869.708C322.174 877.308 322.275 878.408 320.96 883.208C318.331 892.708 318.129 906.408 320.556 916.308L322.679 925.008L320.657 933.308C318.23 943.408 318.129 955.908 320.556 965.508C322.174 972.108 322.174 972.908 320.454 980.008C318.129 989.908 318.129 1001.51 320.657 1011.71C322.679 1020.01 322.679 1020.01 320.657 1028.21C319.544 1032.81 318.634 1039.31 318.634 1042.61V1048.81L305.69 1049.51C298.611 1049.81 292.139 1050.21 291.33 1050.31C290.217 1050.51 289.712 1052.01 289.509 1055.41L289.206 1060.31L298.611 1059.61C303.768 1059.21 309.533 1058.71 311.252 1058.41C314.387 1057.81 314.589 1057.91 314.589 1060.81C314.589 1062.51 315.196 1064.01 315.803 1064.31C316.814 1064.71 316.814 1065.01 315.803 1066.11C314.387 1067.71 314.185 1071.61 315.6 1072.51C316.308 1072.91 316.308 1073.71 315.6 1075.01C314.185 1077.51 314.286 1081.01 315.803 1081.01C318.432 1081.01 315.499 1082.11 307.915 1084.01C288.7 1088.91 289.307 1088.71 289.307 1092.51C289.307 1095.71 289.509 1096.01 291.532 1095.51Z" fill="#5A189A"/>
<path d="M437.156 1225.41C439.583 1225.71 446.055 1226.41 451.719 1227.11L461.933 1228.21L462.539 1237.31C462.944 1242.41 463.854 1248.91 464.663 1251.71C465.877 1256.31 465.877 1257.71 464.663 1262.21C463.955 1265.11 462.944 1270.31 462.64 1273.71L461.933 1280.01H470.731H479.428V1276.71C479.428 1275.01 478.518 1269.81 477.405 1265.31C475.383 1257.01 475.383 1257.01 477.405 1248.81C478.518 1244.21 479.428 1237.81 479.428 1234.41V1228.31L483.372 1227.01C487.619 1225.71 495.406 1226.51 505.316 1229.51C511.991 1231.51 511.991 1231.51 511.586 1226.81C511.283 1222.61 511.283 1222.61 505.418 1220.91C502.08 1219.91 496.417 1218.61 492.574 1218.01C486.507 1217.01 485.799 1216.61 486.203 1214.91C486.507 1213.81 486.001 1212.11 484.99 1211.01C483.978 1209.91 483.675 1209.01 484.282 1209.01C486.102 1209.01 486.911 1204.21 485.394 1202.41C484.181 1200.91 485.394 1200.81 497.934 1201.11L511.789 1201.51V1197.91C511.789 1193.31 510.878 1193.01 495.911 1193.01C489.439 1193.01 484.383 1192.61 483.978 1192.01C483.675 1191.41 482.461 1191.01 481.349 1191.01C479.63 1191.01 479.428 1190.31 479.428 1184.71C479.428 1181.31 478.518 1174.81 477.405 1170.21C475.383 1162.01 475.383 1162.01 477.405 1153.71C479.933 1143.41 479.933 1131.81 477.506 1122.21C475.787 1115.11 475.787 1114.71 477.506 1107.21C480.034 1097.01 479.933 1085.41 477.405 1075.41L475.383 1067.41L477.405 1059.61C479.933 1049.61 480.034 1037.11 477.607 1027.01C475.888 1019.71 475.888 1019.21 477.607 1012.51C480.034 1003.01 479.933 990.308 477.405 980.408L475.383 972.508L477.405 964.308C478.518 959.808 479.428 953.608 479.428 950.608C479.428 945.908 479.731 945.008 481.248 945.008C482.259 945.008 483.574 944.508 484.08 944.008C484.787 943.308 488.833 944.008 496.721 946.308C503.092 948.208 509.058 950.008 509.968 950.508C511.586 951.108 511.789 950.608 511.789 946.308C511.789 940.608 511.89 940.708 495.406 936.508C486.507 934.308 486.001 934.108 486.304 931.708C486.507 930.408 485.9 928.608 485.091 927.708C483.675 926.408 483.675 926.108 484.99 925.008C486.81 923.508 487.012 919.408 485.192 918.308C483.574 917.208 491.765 916.208 502.889 916.108L511.789 916.008V911.508C511.789 908.608 511.283 906.708 510.474 906.408C509.766 906.208 503.799 906.308 497.226 906.908C489.136 907.508 484.484 907.508 482.563 906.708C479.832 905.708 479.63 905.308 479.124 897.608C478.821 893.108 477.81 886.808 476.899 883.608C475.383 878.008 475.383 877.308 477.405 869.608C479.933 859.608 480.034 848.008 477.607 837.808C475.787 830.508 475.787 829.908 477.506 823.308C480.034 813.908 479.933 800.808 477.405 791.008C475.383 783.108 475.383 783.108 477.405 774.808C479.832 764.608 479.933 752.208 477.506 742.508C475.888 735.908 475.888 735.108 477.607 728.008C479.933 718.108 479.933 706.508 477.405 696.208C475.383 688.008 475.383 688.008 477.405 679.708C478.518 675.208 479.428 668.908 479.428 665.808C479.428 660.508 479.63 660.108 482.563 658.608C485.698 657.008 493.282 657.408 507.946 659.708L511.789 660.308V656.108C511.789 652.708 511.384 652.008 509.463 651.608C504.608 650.508 492.473 649.008 489.035 649.008C485.698 649.008 485.495 648.808 486.102 646.308C486.608 644.508 486.304 643.308 485.091 642.508C483.675 641.408 483.574 641.108 484.99 640.008C486.81 638.508 487.012 635.408 485.394 634.408C483.169 633.108 486.911 632.208 497.53 631.508C511.89 630.608 511.789 630.708 511.789 625.908C511.789 622.208 511.687 622.008 508.451 622.008C506.732 622.008 500.664 622.508 495.102 623.008C488.529 623.708 484.686 623.608 484.08 623.008C483.473 622.408 482.259 622.008 481.248 622.008C479.731 622.008 479.428 621.108 479.428 615.708C479.428 612.308 478.518 605.808 477.405 601.208C475.383 592.908 475.383 592.908 477.405 585.008C479.933 575.208 480.034 563.008 477.607 553.008C475.888 545.708 475.888 545.208 477.607 538.508C480.034 529.108 479.933 516.608 477.405 506.608L475.383 498.608L477.506 489.808C479.933 479.808 479.832 465.908 477.102 456.308C475.888 451.608 475.888 450.408 477.203 445.808C479.428 438.108 479.428 418.308 477.102 410.008C475.383 403.708 475.383 403.308 477.405 395.608C478.518 391.208 479.428 385.108 479.428 382.008C479.428 376.408 479.529 376.308 482.664 375.308C484.889 374.708 488.529 374.808 493.586 375.608C497.732 376.308 503.597 377.008 506.429 377.308L511.789 377.708V373.008V368.308L500.867 367.108C486.102 365.508 485.698 365.408 486.304 362.308C486.608 360.608 486.203 359.308 485.091 358.508C483.675 357.408 483.574 357.108 484.99 356.008C486.81 354.508 487.012 350.908 485.394 349.308C484.08 348.008 483.574 348.208 499.855 344.508L511.789 341.808V336.308C511.789 331.508 511.586 330.808 509.968 331.308C492.473 336.608 486.81 337.908 483.271 337.408L479.428 336.708V330.808C479.428 327.508 478.518 321.308 477.405 317.008C475.383 309.108 475.383 309.108 477.405 300.808C479.832 290.608 479.933 278.208 477.506 268.508C475.888 261.908 475.888 261.108 477.607 254.008C479.933 244.108 479.933 232.508 477.405 222.208C475.383 214.008 475.383 214.008 477.405 205.708C479.832 195.608 479.933 183.208 477.506 173.508C475.888 166.908 475.888 166.108 477.607 159.008C479.933 149.108 479.933 137.508 477.405 127.208C475.383 118.908 475.383 118.908 477.405 111.008C478.518 106.708 479.428 100.308 479.428 96.7083V90.3083L483.473 88.5083C486.911 87.0083 489.035 86.8083 497.327 87.4083C502.788 87.8083 508.249 88.3083 509.463 88.6083C511.586 89.2083 511.789 88.9083 511.789 85.2083C511.789 80.1083 511.283 79.9083 496.923 79.3083L485.495 78.7083L486.203 76.2083C486.608 74.5083 486.304 73.3083 485.091 72.5083C483.675 71.4083 483.574 71.1083 484.99 70.0083C486.81 68.5083 487.012 65.9083 485.293 64.2083C484.383 63.3083 484.484 62.9083 485.596 62.5083C488.833 61.4083 503.496 59.0083 507.44 59.0083H511.789V54.1083V49.2083L507.44 49.7083C505.114 50.0083 499.046 51.0083 494.091 51.9083C489.035 52.8083 483.877 53.3083 482.461 53.0083C480.136 52.5083 479.933 51.9083 479.327 44.5083C479.023 40.1083 477.911 33.8083 477.001 30.5083C475.383 25.0083 475.383 24.0083 476.899 18.5083C477.81 15.2083 478.72 9.70828 479.124 6.20828L479.731 0.00828171H470.832H461.933L462.64 6.70828C462.944 10.5083 463.955 15.9083 464.764 18.9083C465.978 23.6083 465.978 25.0083 464.663 29.9083C463.854 33.0083 462.843 38.7083 462.539 42.6083L461.933 49.7083L453.236 50.4083C448.483 50.7083 441.909 51.5083 438.673 52.1083L432.909 53.3083V57.2083C432.909 61.1083 433.01 61.2083 435.639 60.6083C437.257 60.3083 442.921 59.7083 448.28 59.4083L458.191 58.7083V61.8083C458.191 63.5083 458.798 65.0083 459.404 65.3083C460.416 65.7083 460.416 66.0083 459.404 67.1083C457.786 68.8083 457.786 72.7083 459.404 73.3083C460.416 73.7083 460.416 74.0083 459.404 75.1083C457.887 76.7083 457.786 80.2083 459.303 81.7083C460.011 82.4083 458.09 82.9083 452.932 83.3083C448.887 83.6083 442.718 84.4083 439.179 85.1083L432.909 86.2083V89.7083C432.909 93.3083 432.909 93.3083 436.651 92.6083C438.774 92.2083 445.348 91.7083 451.213 91.3083L461.933 90.7083L462.539 99.6083C462.944 104.508 463.854 110.908 464.663 113.708C465.978 118.408 465.877 119.608 464.461 124.708C462.135 132.808 462.236 151.408 464.663 159.908C466.382 166.108 466.382 166.608 464.562 173.408C462.135 182.908 462.135 200.308 464.562 208.208C466.281 213.708 466.281 214.308 464.562 219.708C462.135 227.608 462.135 246.108 464.663 254.908C466.382 261.108 466.382 261.608 464.562 268.408C462.236 277.508 462.135 295.108 464.461 303.208C465.877 308.308 465.877 309.608 464.663 314.508C463.854 317.508 462.843 323.108 462.438 326.908L461.73 333.908L451.618 330.608C446.055 328.708 439.786 326.508 437.763 325.608C435.639 324.708 433.718 324.008 433.414 324.008C433.111 324.008 432.909 326.308 433.111 329.208L433.414 334.408L438.977 336.508C442.01 337.708 447.572 339.508 451.415 340.508C458.09 342.308 458.191 342.408 458.191 345.608C458.191 347.708 458.798 349.308 459.91 349.908C460.921 350.508 461.225 351.008 460.618 351.008C460.011 351.008 459 352.108 458.393 353.408C457.584 355.208 457.685 356.308 458.899 358.008C460.011 359.608 460.112 360.508 459.303 361.308C457.786 362.808 457.887 368.008 459.404 368.008C460.213 368.008 460.314 368.308 459.607 369.008C459 369.608 452.831 370.308 445.752 370.708L432.909 371.308V375.608C432.909 379.408 433.212 380.008 435.437 380.608C436.853 380.908 442.921 380.708 448.887 380.108C454.854 379.508 460.213 379.008 460.82 379.008C461.427 379.008 462.236 381.908 462.539 385.808C462.843 389.508 463.854 395.008 464.663 398.008C465.978 402.908 465.978 404.108 464.562 409.508C462.236 417.908 462.236 434.508 464.562 444.008C466.281 451.108 466.281 451.808 464.764 457.508C461.933 467.508 461.73 480.208 464.056 490.008L466.079 498.508L464.157 506.508C461.831 515.808 462.034 529.508 464.764 539.408C466.281 544.908 466.281 545.808 464.562 552.408C462.236 561.508 462.135 579.108 464.461 587.308C465.978 592.508 465.978 593.708 464.663 598.308C463.854 601.208 462.944 607.208 462.64 611.708C462.236 616.308 461.831 620.008 461.73 620.008C460.314 620.008 439.583 617.808 436.651 617.408L432.909 616.808V621.908V627.008H437.156C439.583 627.008 445.246 627.308 449.797 627.708C458.191 628.308 458.191 628.308 458.191 631.108C458.191 632.608 458.899 634.308 459.809 634.808C461.326 635.608 461.326 635.808 459.809 636.308C457.887 637.108 457.584 642.608 459.404 643.308C460.416 643.708 460.416 644.008 459.404 645.108C457.887 646.708 457.786 650.208 459.303 651.708C460.011 652.408 458.393 652.908 453.842 653.308C450.303 653.608 444.134 654.608 440.19 655.508L432.909 657.208V661.508V665.908L436.145 664.908C440.19 663.808 456.775 661.008 459.809 661.008C461.73 661.008 462.034 661.708 462.539 669.208C462.944 673.808 463.854 679.908 464.663 682.708C465.978 687.408 465.877 688.608 464.461 693.708C462.135 701.808 462.236 720.408 464.663 728.908C466.382 735.108 466.382 735.608 464.562 742.408C462.236 751.508 462.135 769.108 464.461 777.208C465.978 782.508 465.978 783.508 464.461 788.708C462.135 796.808 462.236 815.508 464.663 823.908C466.382 830.108 466.382 830.608 464.562 837.408C462.135 846.708 462.135 863.208 464.461 871.608C465.978 877.108 465.978 878.308 464.663 883.108C463.854 886.108 462.944 891.808 462.539 895.708C462.236 899.708 461.629 903.008 461.326 903.008C461.022 903.008 454.752 901.408 447.572 899.508C440.291 897.608 434.021 896.008 433.617 896.008C433.212 896.008 432.909 898.108 433.111 900.708L433.414 905.408L445.752 908.408C457.786 911.308 458.191 911.508 458.191 914.108C458.191 915.608 458.899 917.308 459.809 918.108C461.225 919.208 461.225 919.408 459.809 920.208C457.887 921.308 457.685 926.108 459.404 927.808C460.314 928.708 460.314 929.308 459.404 930.208C457.887 931.708 457.786 937.008 459.404 937.008C460.011 937.008 460.314 937.308 459.91 937.608C459.607 938.008 453.438 939.208 446.359 940.408L433.414 942.508L433.111 947.208C432.909 949.908 433.212 952.008 433.617 952.008C434.527 952.008 456.168 948.308 459.809 947.508C461.831 947.108 462.034 947.608 462.539 954.308C462.944 958.208 463.854 963.908 464.663 966.908C466.079 971.908 465.978 973.008 464.056 980.908C461.629 990.908 461.933 1003.71 464.764 1013.41C466.382 1019.01 466.382 1019.61 464.663 1026.41C462.135 1035.71 462.135 1053.01 464.562 1061.61C466.079 1067.21 466.079 1068.21 464.764 1072.61C463.854 1075.31 462.944 1081.81 462.64 1087.01C462.135 1094.71 462.438 1098.21 464.157 1105.61C466.382 1114.61 466.382 1114.91 464.562 1121.11C462.236 1129.51 462.135 1148.21 464.461 1156.11C465.877 1161.31 465.877 1162.31 464.157 1170.11C463.146 1174.71 462.236 1180.71 462.236 1183.41V1188.21L455.359 1187.51C451.618 1187.11 445.044 1186.51 440.696 1186.11L432.909 1185.41V1189.01V1192.61L444.235 1193.91C457.685 1195.41 458.191 1195.61 458.191 1198.41C458.191 1199.61 458.696 1201.11 459.303 1201.71C460.112 1202.51 460.011 1203.41 459 1204.91C457.989 1206.61 457.989 1207.41 459 1209.01C460.011 1210.61 460.011 1211.41 459 1213.01C457.989 1214.61 457.989 1215.41 459 1217.11C460.314 1219.11 460.213 1219.11 446.561 1218.41L432.909 1217.71V1221.31C432.909 1224.81 433.01 1224.91 437.156 1225.41Z" fill="#5A189A"/>
<path d="M583.488 1091.91C587.331 1090.91 593.803 1089.81 598.051 1089.31L605.534 1088.41L606.141 1094.81C606.545 1098.31 607.557 1104.11 608.467 1107.71C610.085 1114.01 610.085 1114.81 608.265 1122.41C605.838 1132.61 605.838 1147.11 608.265 1155.71C609.781 1161.61 609.781 1162.41 608.265 1168.21C605.433 1179.11 605.332 1187.51 607.759 1199.51C609.984 1210.11 609.984 1210.31 608.163 1217.41C605.838 1226.61 605.838 1242.11 608.163 1250.71C609.781 1256.41 609.781 1257.51 608.467 1262.71C607.557 1265.91 606.647 1271.11 606.242 1274.21L605.534 1280.01H614.332H623.029V1276.21C623.029 1274.01 622.119 1268.91 621.007 1264.71C619.085 1257.11 619.085 1256.91 621.007 1249.31C623.535 1239.91 623.535 1225.31 621.209 1216.01C619.591 1209.91 619.591 1209.11 621.209 1202.51C623.636 1193.01 623.535 1179.31 621.007 1169.71C619.085 1162.11 619.085 1161.91 621.007 1154.31C623.535 1144.91 623.636 1131.91 621.411 1122.01C619.995 1115.81 619.894 1114.01 621.108 1109.11C621.816 1106.01 622.625 1099.71 622.928 1095.11L623.535 1086.61L626.872 1085.81C629.097 1085.21 633.547 1085.61 641.03 1087.01C655.795 1089.71 655.592 1089.81 655.188 1085.31L654.884 1081.71L644.266 1079.31C638.401 1078.01 632.636 1076.81 631.524 1076.51C629.805 1076.11 629.501 1075.51 629.906 1073.41C630.209 1071.61 629.805 1070.31 628.692 1069.51C627.277 1068.41 627.175 1068.11 628.591 1067.01C630.412 1065.51 630.614 1061.91 628.794 1060.11C627.782 1059.01 630.007 1058.91 641.434 1059.31L655.39 1059.71V1054.91V1050.01L641.94 1049.91C622.827 1049.81 623.636 1050.21 623.029 1040.01C622.726 1035.31 621.816 1028.81 621.007 1025.41C619.793 1020.11 619.894 1018.61 621.31 1012.71C623.636 1003.71 623.535 989.508 621.007 980.108C619.186 972.808 619.186 972.608 621.007 965.108C623.535 955.508 623.535 941.008 621.209 932.008C619.591 925.908 619.591 925.108 621.209 918.008C623.535 908.208 623.535 895.508 621.108 885.508C619.186 877.708 619.186 877.408 621.108 870.008C623.535 860.608 623.535 846.008 621.209 837.008C619.591 830.908 619.591 830.108 621.209 823.508C622.22 819.608 623.029 813.308 623.029 809.308C623.029 802.308 623.13 802.108 626.265 800.608C628.591 799.408 632.636 799.008 642.446 799.008H655.39V795.108V791.308L646.997 790.708C642.446 790.308 636.58 790.008 633.951 790.008C629.805 790.008 629.299 789.808 629.805 788.008C630.108 786.908 629.805 785.308 629.097 784.508C628.086 783.308 628.086 782.608 628.895 781.808C630.412 780.308 630.412 776.708 628.996 775.308C627.984 774.308 634.659 772.908 651.042 770.508C655.289 769.808 655.39 769.708 655.39 765.908C655.39 761.308 655.39 761.308 641.232 763.608C635.974 764.408 629.704 764.808 627.277 764.508L623.029 763.908L622.928 756.208C622.827 752.008 622.119 745.608 621.209 742.008C619.591 735.908 619.591 735.108 621.209 728.508C623.636 719.008 623.535 705.308 621.108 695.908C619.186 688.508 619.186 688.308 621.108 680.408C623.434 670.608 623.535 657.708 621.411 648.008C619.894 641.308 619.894 640.208 621.411 633.408C623.636 623.408 623.434 610.308 621.007 600.908C619.186 593.408 619.186 593.208 621.007 585.908C623.535 576.408 623.636 562.008 621.209 552.608C619.49 546.108 619.49 545.408 621.209 539.108C622.119 535.508 622.928 529.308 622.928 525.408L623.029 518.308L626.569 517.708C630.108 517.108 636.479 518.908 649.12 523.908C652.053 525.008 654.682 526.008 654.884 526.008C655.188 526.008 655.39 524.108 655.39 521.708V517.508L646.997 514.308C642.446 512.508 636.58 510.308 634.052 509.508C629.805 508.108 629.4 507.708 629.906 505.308C630.209 503.608 629.805 502.308 628.692 501.508C627.277 500.408 627.175 500.108 628.591 499.008C630.412 497.508 630.614 493.908 628.794 492.108C627.782 491.108 628.692 491.008 633.648 491.508C640.727 492.308 651.042 493.908 653.57 494.608C655.087 495.108 655.39 494.508 655.39 490.608C655.39 487.208 654.986 486.008 653.57 485.608C649.828 484.508 639.715 483.008 636.277 483.008C634.254 483.008 630.513 482.208 627.782 481.308L623.029 479.608V472.808C623.029 469.108 622.321 462.708 621.31 458.508C619.793 451.508 619.793 450.508 621.31 443.508C623.535 433.508 623.434 421.408 621.108 411.508C619.186 403.708 619.186 403.408 621.108 396.008C623.535 386.408 623.535 372.008 621.209 362.908C619.49 356.608 619.49 355.908 621.209 349.408C623.636 340.008 623.535 326.408 621.007 316.608C619.085 309.008 619.085 308.908 621.007 301.208C623.434 291.608 623.636 278.708 621.411 268.608C619.894 261.808 619.894 260.708 621.411 254.008C622.321 250.008 623.029 243.808 623.029 240.108C623.029 233.408 623.029 233.408 626.366 232.208C628.288 231.508 635.165 231.008 642.547 231.008H655.39V226.508V222.008H642.345H629.4L629.906 219.308C630.209 217.608 629.805 216.308 628.692 215.508C627.277 214.408 627.175 214.108 628.591 213.008C630.31 211.608 630.715 207.008 629.097 207.008C628.49 207.008 628.086 206.508 628.086 206.008C628.086 205.408 628.895 205.008 629.805 205.008C631.423 205.008 641.03 202.708 651.547 199.908C655.188 199.008 655.39 198.708 655.39 194.608V190.308L642.041 193.708C633.243 195.908 628.288 196.608 627.681 196.008C627.074 195.408 625.861 195.008 624.85 195.008C623.231 195.008 623.029 194.108 623.029 188.108C623.029 184.308 622.321 178.008 621.411 174.008C619.894 167.308 619.894 166.208 621.411 159.408C623.636 149.308 623.434 136.408 621.007 126.808C619.085 119.108 619.085 119.008 621.007 111.408C623.535 101.608 623.636 88.0083 621.209 78.6083C619.49 72.1083 619.49 71.4083 621.209 65.1083C623.535 56.0083 623.535 41.6083 621.108 32.0083C619.186 24.6083 619.186 24.3083 621.108 16.5083C622.119 12.1083 623.029 6.60828 623.029 4.20828V0.00828171H614.332H605.534L606.242 6.60828C606.647 10.2083 607.557 15.7083 608.366 18.8083C609.68 23.7083 609.68 25.0083 608.163 30.4083C605.838 38.9083 605.838 55.4083 608.265 64.7083C610.085 71.7083 610.085 72.1083 608.265 79.2083C605.838 88.6083 605.838 104.108 608.163 112.708C609.781 118.608 609.781 119.408 608.265 125.208C605.433 136.108 605.332 144.408 607.86 156.608C609.984 167.208 609.984 167.808 608.366 173.908C607.456 177.508 606.444 183.408 606.141 187.208L605.534 194.008H597.848C593.601 194.008 587.129 194.308 583.286 194.708L576.51 195.308V199.708V204.208L580.252 203.608C582.376 203.308 588.039 202.808 592.893 202.408L601.792 201.808V204.808C601.792 206.608 602.399 208.008 603.41 208.408C604.826 208.908 604.826 209.108 603.41 210.608C601.489 212.408 601.287 215.108 603.006 216.808C603.916 217.708 603.916 218.308 603.006 219.208C601.489 220.708 601.388 224.208 602.804 225.608C603.512 226.308 601.691 227.008 597.444 227.808C594.006 228.508 587.837 229.808 583.792 230.608L576.51 232.208L576.51 236.108C576.51 239.708 576.713 240.008 578.735 239.608C580.05 239.308 585.612 238.408 591.174 237.508C596.736 236.608 602.197 235.608 603.41 235.408C605.332 234.908 605.534 235.408 606.141 241.408C606.444 244.908 607.456 250.708 608.366 254.208C609.984 260.208 609.984 260.908 607.86 271.408C605.332 283.608 605.433 291.908 608.265 302.708C609.781 308.608 609.781 309.408 608.163 315.208C605.838 323.908 605.838 339.408 608.265 348.808C610.085 355.908 610.085 356.308 608.265 363.308C605.838 372.608 605.838 389.108 608.163 397.608C609.781 403.208 609.781 404.108 608.163 409.608C605.838 418.008 605.838 434.508 608.265 443.808C609.984 450.608 609.984 451.508 608.568 457.308C607.658 460.708 606.647 466.508 606.242 470.208C605.838 474.108 605.13 477.008 604.422 477.008C603.815 477.008 597.343 475.508 590.163 473.608L577.016 470.308L576.713 474.308C576.51 476.508 576.814 478.608 577.421 478.908C578.027 479.308 583.691 480.908 590.163 482.508C601.186 485.308 601.792 485.608 601.792 488.008C601.792 489.408 602.298 491.108 603.006 491.808C603.916 492.708 603.916 493.308 603.006 494.208C601.489 495.708 601.489 499.308 603.006 500.808C603.916 501.708 603.916 502.308 603.006 503.208C601.489 504.708 601.388 508.208 602.905 509.708C604.624 511.408 595.927 512.208 585.511 511.408L576.51 510.708V515.308V519.808L585.207 520.508C589.96 520.908 596.433 521.008 599.669 520.608L605.534 519.908L606.242 526.708C606.647 530.408 607.658 536.308 608.568 539.708C609.984 545.508 609.984 546.508 608.366 552.708C605.534 563.808 605.332 573.208 607.658 584.108C609.68 593.308 609.68 594.008 608.062 599.608C605.736 608.008 605.838 624.508 608.265 633.608C610.186 640.508 610.186 640.808 608.265 648.108C605.838 657.608 605.736 673.008 608.163 681.708C609.883 687.608 609.883 688.408 608.265 694.208C605.838 702.908 605.838 717.408 608.265 727.708C610.085 735.508 610.085 736.108 608.467 742.608C607.557 746.308 606.444 752.108 606.141 755.508L605.534 761.708L597.95 762.408C593.803 762.708 587.938 763.008 585.005 763.008C577.623 763.008 576.51 763.608 576.51 767.608V771.008H589.556C602.399 771.008 602.601 771.008 602.096 773.108C601.691 774.508 602.096 775.708 603.208 776.508C604.624 777.608 604.725 777.908 603.309 779.008C601.489 780.508 601.287 784.708 603.006 785.308C604.017 785.708 604.017 786.008 603.006 787.108C601.489 788.708 601.388 792.208 602.804 793.608C603.512 794.308 601.792 795.008 597.343 795.808C593.702 796.508 587.634 797.708 583.691 798.608L576.51 800.208V804.608C576.51 807.008 576.713 809.008 577.016 809.008C577.218 809.008 581.263 808.108 586.016 807.008C590.769 805.908 597.039 804.708 600.073 804.208L605.534 803.308L606.141 809.908C606.444 813.508 607.456 819.508 608.467 823.308C610.085 829.708 610.085 830.408 608.265 837.308C605.838 846.608 605.838 863.008 608.163 871.608C609.781 877.308 609.781 878.108 608.163 883.608C605.838 891.808 605.939 909.408 608.265 917.908C609.984 924.108 609.984 924.608 607.759 935.308C605.433 947.308 605.534 956.508 608.265 966.808C609.579 971.508 609.478 973.008 607.658 981.808C605.332 992.708 605.635 1002.21 608.467 1013.41C609.984 1019.61 609.984 1020.41 608.467 1026.71C607.456 1030.31 606.444 1036.11 606.141 1039.51L605.534 1045.61L597.848 1044.41C593.601 1043.71 587.129 1043.11 583.286 1043.11L576.51 1043.01V1046.91C576.51 1051.31 575.398 1050.91 590.668 1052.51C601.894 1053.71 602.5 1053.91 601.995 1056.71C601.691 1058.41 602.096 1059.71 603.208 1060.51C604.624 1061.61 604.725 1061.91 603.309 1063.01C601.287 1064.61 601.388 1068.71 603.41 1069.81C604.826 1070.61 604.826 1070.81 603.41 1071.91C601.59 1073.41 601.287 1077.11 602.905 1078.71C603.613 1079.41 601.894 1079.91 597.039 1080.41C593.298 1080.81 587.129 1081.81 583.286 1082.61L576.51 1084.21V1088.91V1093.61L583.488 1091.91Z" fill="#5A189A"/>
<path d="M723.853 1230.41C725.977 1230.71 732.55 1231.01 738.416 1231.01H749.135L749.843 1237.71C750.248 1241.51 751.259 1247.21 752.068 1250.51C753.484 1255.81 753.484 1257.11 752.068 1263.01C751.259 1266.61 750.248 1271.91 749.944 1274.71L749.236 1280.01H758.338H767.439L766.833 1275.31C766.63 1272.61 765.619 1267.41 764.608 1263.71C762.99 1257.31 762.99 1256.51 764.709 1250.01C765.619 1246.21 766.732 1240.01 767.136 1236.21C768.046 1227.01 769.159 1226.61 784.833 1229.71C791.204 1230.91 797.07 1231.91 797.677 1232.01C798.587 1232.01 798.991 1230.51 798.991 1227.71V1223.31L794.137 1222.31C791.508 1221.71 785.845 1220.61 781.496 1219.91L773.709 1218.61V1215.41C773.709 1213.61 773.204 1211.81 772.597 1211.41C771.788 1211.01 771.788 1210.51 772.597 1209.71C774.114 1208.21 774.013 1203.01 772.496 1203.01C771.788 1203.01 771.687 1202.71 772.294 1202.21C772.799 1201.71 777.957 1200.81 783.822 1200.11C799.8 1198.21 798.991 1198.71 798.991 1192.51V1187.21L795.148 1188.21C788.171 1190.11 771.687 1192.81 771.687 1191.91C771.687 1191.51 770.777 1191.01 769.563 1190.81C767.743 1190.51 767.439 1189.61 767.035 1183.51C766.833 1179.61 765.72 1173.21 764.709 1169.21C762.99 1162.21 762.99 1161.81 764.81 1154.71C767.338 1145.11 767.541 1131.51 765.215 1122.31C763.495 1115.51 763.495 1114.81 765.215 1107.31C767.541 1097.01 767.439 1084.61 764.81 1074.81C762.788 1067.21 762.788 1067.11 764.81 1060.31C767.439 1051.21 767.541 1036.91 765.215 1027.31C763.495 1020.51 763.495 1019.81 765.113 1012.81C767.439 1003.01 767.338 989.508 764.911 980.008C762.99 972.808 762.99 972.208 764.709 965.808C765.619 962.108 766.732 955.708 767.136 951.608C767.743 944.708 767.945 944.208 770.372 943.708C771.788 943.508 778.26 944.308 784.732 945.608C791.204 946.908 797.07 948.008 797.677 948.008C798.486 948.008 798.991 946.608 798.991 944.108V940.208L793.632 939.108C774.923 935.208 773.709 934.808 773.709 932.008C773.709 930.608 773.204 928.908 772.496 928.208C771.586 927.308 771.586 926.708 772.496 925.808C774.013 924.308 774.114 920.808 772.597 919.308C771.788 918.508 775.024 918.308 785.238 918.708L798.991 919.308V915.108C798.991 911.908 798.587 911.008 797.171 910.908C786.35 910.608 772.698 908.908 770.372 907.708C767.642 906.308 767.439 905.708 767.035 898.708C766.732 894.608 765.72 888.208 764.709 884.508C762.889 878.008 762.889 877.708 764.81 870.208C767.439 860.408 767.541 848.008 765.215 837.708C763.495 830.208 763.495 829.508 765.215 822.708C767.541 813.408 767.439 799.908 764.81 790.208C762.99 783.108 762.99 782.808 764.81 775.708C767.338 766.408 767.439 751.908 765.215 742.608C763.597 736.108 763.597 735.208 765.215 728.108C767.541 718.308 767.338 704.808 764.81 695.308C762.99 688.408 762.99 687.808 764.709 681.308C765.619 677.608 766.732 671.308 767.136 667.308L767.844 660.108L771.485 659.608C773.608 659.208 777.957 659.408 781.294 660.008C784.631 660.508 789.991 661.008 793.126 661.008H798.991V657.208V653.308L786.553 651.908L774.215 650.508L773.912 647.508C773.709 645.808 773.103 644.008 772.597 643.308C771.889 642.608 771.99 641.908 772.698 641.508C774.114 640.608 774.013 635.708 772.496 634.208C771.586 633.308 772.597 633.008 777.35 633.008C780.586 633.008 786.856 632.508 791.204 631.808L798.991 630.708V625.708C798.991 621.508 798.789 620.908 797.272 621.408C796.362 621.808 790.901 622.608 785.137 623.208C777.047 624.108 773.912 624.108 770.979 623.108L767.136 621.808L766.934 614.908C766.833 611.208 765.821 604.708 764.81 600.708C762.889 593.408 762.889 593.208 764.81 585.908C767.439 576.208 767.541 562.808 765.215 553.308C763.495 546.508 763.495 545.808 765.113 538.808C767.439 529.208 767.338 514.708 764.81 505.508C762.99 498.608 762.99 498.308 764.911 491.008C767.439 481.308 767.541 467.808 765.215 458.208C763.495 451.308 763.495 450.708 765.215 443.708C767.541 434.108 767.439 419.808 764.81 410.708C762.889 404.008 762.889 403.808 764.709 396.408C765.821 392.308 766.833 385.808 766.934 382.108L767.136 375.208L770.878 373.908C773.406 373.108 778.563 372.908 786.755 373.208L798.991 373.708V369.508V365.308L786.047 364.508L773.001 363.808L773.507 361.308C773.81 359.608 773.406 358.308 772.294 357.508C770.878 356.408 770.777 356.108 772.192 355.008C773.912 353.608 774.215 349.908 772.597 348.308C771.586 347.308 778.968 345.808 792.62 344.408L798.991 343.708V339.308V334.808L792.115 335.508C788.373 335.808 782.811 336.608 779.777 337.108C776.743 337.608 772.799 337.708 771.08 337.408C767.844 336.808 767.844 336.708 767.136 329.708C766.732 325.708 765.619 319.408 764.709 315.708C762.99 309.208 762.99 308.608 764.81 301.708C767.338 292.208 767.541 278.708 765.215 268.708C763.495 261.308 763.495 260.708 765.215 253.708C767.541 244.508 767.338 231.008 764.81 221.208C762.99 214.108 762.99 213.908 764.81 206.708C767.338 197.008 767.541 183.508 765.215 174.308C763.495 167.308 763.495 166.708 765.215 159.308C767.541 149.308 767.338 135.808 764.81 126.308C762.99 119.308 762.99 118.908 764.81 111.908C765.821 107.908 766.732 101.608 766.833 97.9083L767.136 91.2083L770.878 90.0083C773.709 89.0083 777.047 89.0083 785.541 89.9083C791.508 90.5083 797.07 91.0083 797.677 91.0083C798.486 91.0083 798.991 89.6083 798.991 87.1083C798.991 82.7083 798.789 82.7083 786.856 81.5083C774.013 80.3083 773.709 80.2083 773.709 77.2083C773.709 75.6083 773.204 73.9083 772.597 73.3083C771.788 72.5083 771.788 72.0083 772.597 71.6083C774.013 70.7083 774.013 66.7083 772.597 65.3083C771.383 64.1083 772.294 63.9083 789.081 61.9083L798.991 60.7083V56.3083C798.991 51.3083 800.104 51.5083 784.328 53.6083C775.732 54.8083 772.192 54.9083 771.383 54.1083C770.777 53.5083 769.563 53.0083 768.653 53.0083C767.439 53.0083 767.136 51.5083 766.934 46.0083C766.833 42.2083 765.821 35.7083 764.709 31.6083C762.889 24.4083 762.889 23.9083 764.608 17.8083C765.518 14.3083 766.63 8.90828 766.934 5.70828L767.541 0.00828171H758.338H749.135L749.843 6.20828C750.248 9.70828 751.259 15.2083 752.068 18.6083C753.484 24.0083 753.484 25.3083 752.068 30.6083C751.158 33.9083 750.147 39.9083 749.843 43.9083L749.135 51.3083L736.899 50.6083C730.224 50.2083 723.651 49.7083 722.438 49.3083C720.314 48.8083 720.112 49.1083 720.112 52.8083C720.112 56.4083 720.415 56.9083 722.943 57.4083C725.168 57.9083 743.068 59.9083 745.596 60.0083C745.899 60.0083 746 60.9083 745.697 62.0083C745.394 63.1083 745.697 64.6083 746.304 65.3083C747.113 66.3083 747.012 67.5083 746.203 69.8083C745.09 72.5083 745.191 73.1083 746.809 74.3083C748.427 75.5083 748.427 75.7083 747.012 76.9083C745.09 78.5083 744.888 81.6083 746.607 82.7083C748.731 83.9083 742.966 84.8083 730.932 84.9083L720.112 85.0083V89.0083V93.0083H734.775H749.439V96.6083C749.439 98.5083 750.349 104.608 751.461 110.008C753.484 119.508 753.484 120.108 751.866 126.208C749.439 134.808 749.54 150.308 752.068 159.508C753.888 166.308 753.888 166.708 752.169 173.508C749.641 183.208 749.439 197.608 751.866 206.708C753.686 213.808 753.686 214.208 751.866 221.208C749.439 230.408 749.641 244.808 752.169 254.508C753.888 261.308 753.888 261.708 752.068 268.508C749.54 277.708 749.439 293.208 751.866 301.808C753.484 307.908 753.484 308.508 751.461 318.008C750.349 323.408 749.439 329.008 749.439 330.408C749.439 331.808 749.338 333.008 749.135 333.008C749.034 333.008 742.764 331.208 735.281 329.008C727.797 326.808 721.325 325.008 720.819 325.008C720.415 325.008 720.112 326.908 720.112 329.308V333.608L733.056 337.408C745.191 340.908 746.101 341.308 745.697 343.408C745.394 344.708 745.899 346.408 746.809 347.208C748.225 348.608 748.225 349.008 746.91 350.008C745.09 351.508 744.888 355.108 746.607 356.808C747.517 357.708 747.517 358.308 746.607 359.208C745.09 360.708 745.09 364.308 746.607 365.808C747.517 366.708 744.787 367.008 733.966 367.008H720.112V372.208V377.308L734.674 376.608L749.135 375.908L749.742 383.608C750.147 387.708 751.158 393.908 752.068 397.208C753.484 402.908 753.484 403.808 751.765 410.408C749.338 419.908 749.54 435.108 752.27 444.208C754.192 451.008 754.192 451.008 752.27 457.708C749.54 466.708 749.338 483.008 751.866 491.908C753.585 498.008 753.585 498.608 751.765 505.408C749.338 514.808 749.54 530.108 752.169 539.008C753.989 545.408 754.091 545.808 752.27 552.508C749.236 564.508 749.034 572.308 751.461 583.708C753.484 593.208 753.484 594.208 752.068 599.708C751.158 602.908 750.147 608.908 749.843 612.808L749.135 620.108L746 619.508C740.843 618.408 723.752 614.208 721.831 613.508C720.314 612.908 720.112 613.508 720.112 618.308V623.708L726.887 625.308C730.73 626.208 736.494 627.408 739.933 628.108C745.495 629.108 746 629.408 745.697 631.408C745.394 632.708 745.899 634.408 746.809 635.208C748.225 636.608 748.225 637.008 746.91 638.008C744.888 639.608 744.989 643.708 747.012 644.808C748.427 645.608 748.427 645.808 747.012 646.908C745.191 648.408 744.888 651.608 746.405 652.508C748.933 654.008 746.607 654.808 735.989 655.908C719.303 657.708 720.112 657.408 720.112 662.008C720.112 666.708 719.505 666.608 735.786 664.508C741.854 663.708 747.416 663.008 748.023 663.008C748.731 663.008 749.439 665.708 749.843 669.208C750.248 672.708 751.259 678.408 752.068 681.908C753.484 687.808 753.484 689.008 751.765 695.408C749.439 704.508 749.641 718.908 752.169 728.508C753.989 735.308 753.989 735.708 752.169 742.508C749.641 751.808 749.54 767.308 751.866 775.908C753.585 782.008 753.484 782.708 751.866 789.908C749.54 799.708 749.641 814.108 752.169 823.508C754.091 830.308 754.091 830.608 752.169 837.008C749.54 845.608 749.439 862.108 751.765 870.708C753.484 876.708 753.484 877.308 751.461 886.908C750.349 892.308 749.439 898.508 749.439 900.508C749.439 904.108 749.338 904.108 746.101 903.508C744.382 903.108 738.112 901.508 732.348 899.908C726.584 898.308 721.426 897.008 721.022 897.008C720.516 897.008 720.112 898.908 720.112 901.308V905.708L729.921 908.308C735.382 909.808 741.045 911.208 742.562 911.608C744.888 912.108 745.394 912.808 745.394 915.108C745.394 916.608 746.101 918.308 747.012 918.808C748.427 919.608 748.427 919.808 747.012 920.908C744.989 922.608 744.989 925.408 746.91 927.008C748.225 928.108 748.225 928.408 746.91 929.708C745.09 931.508 744.989 934.108 746.607 935.908C748.023 937.308 747.618 937.308 726.887 935.408L720.112 934.708V938.708V942.708L730.427 943.908C736.191 944.508 742.663 945.308 744.989 945.608L749.135 946.108L749.843 953.208C750.248 957.208 751.158 963.108 752.068 966.408C753.484 971.908 753.484 972.908 751.765 979.408C749.338 988.808 749.54 1004.11 752.169 1013.01C754.091 1019.41 754.091 1019.71 752.169 1026.51C749.641 1035.91 749.439 1052.21 751.866 1060.91C753.585 1067.01 753.585 1067.61 751.765 1074.41C749.338 1083.81 749.54 1099.11 752.169 1108.01C754.091 1114.41 754.091 1114.71 752.169 1121.51C749.641 1130.91 749.54 1145.31 751.866 1155.11C753.484 1162.11 753.484 1163.21 752.068 1168.61C751.158 1171.91 750.248 1177.71 749.843 1181.61L749.135 1188.61L739.933 1187.41C734.876 1186.71 728.303 1185.91 725.37 1185.51L720.112 1184.71V1188.81C720.112 1192.81 720.112 1192.81 724.865 1193.81C727.595 1194.41 733.46 1195.41 737.91 1196.11C745.191 1197.21 746.101 1197.51 745.596 1199.21C745.394 1200.21 745.899 1201.91 746.809 1202.91C748.326 1204.51 748.326 1204.81 746.91 1206.01C744.989 1207.61 744.989 1210.41 746.91 1212.01C748.225 1213.11 748.225 1213.41 746.91 1214.71C745.09 1216.41 744.989 1219.21 746.506 1220.71C748.326 1222.51 740.539 1223.31 729.719 1222.51L720.112 1221.81V1225.81C720.112 1229.61 720.213 1229.81 723.853 1230.41Z" fill="#5A189A"/>
</svg>
